<svg width="56" height="56" viewBox="0 0 56 56" fill="none" xmlns="http://www.w3.org/2000/svg">
<circle cx="28" cy="28" r="28" fill="url(#paint0_linear_15_31)"/>
<path d="M12.1094 29.3145C12.1094 24.8496 13.6328 21.0352 16.6797 17.8711C19.7266 14.6953 23.7109 13.1074 28.6328 13.1074C32.2188 13.1074 35.4941 14.1563 38.459 16.2539C41.4238 18.3398 42.9062 21.7266 42.9062 26.4141C42.9062 29.8594 42.0801 32.4961 40.4277 34.3242C38.7754 36.1406 36.6016 37.0488 33.9062 37.0488C32.3828 37.0488 31.4102 36.7148 30.9883 36.0469C30.5664 35.3789 30.3555 34.418 30.3555 33.1641H30.3203C29.875 34.207 29.1133 35.1152 28.0352 35.8887C26.957 36.6621 25.8848 37.0488 24.8184 37.0488C23.248 37.0488 21.9824 36.4863 21.0215 35.3613C20.0723 34.2363 19.5977 32.7129 19.5977 30.791C19.5977 28.377 20.3652 26.0918 21.9004 23.9355C23.4473 21.7676 25.375 20.6836 27.6836 20.6836C29.9219 20.6836 31.2988 21.7148 31.8145 23.7773H31.8848L32.2891 21.9141C32.3711 21.5156 32.6172 21.3164 33.0273 21.3164H34.9609C35.3711 21.3164 35.5293 21.5215 35.4355 21.9316L33.1328 32.3203C32.875 33.4688 32.8984 34.1953 33.2031 34.5C33.5078 34.793 33.9238 34.9395 34.4512 34.9395C36.1621 34.9395 37.6387 34.2891 38.8809 32.9883C40.1348 31.6758 40.7617 29.4844 40.7617 26.4141C40.7617 22.8516 39.625 20.0977 37.3516 18.1523C35.0781 16.1953 32.1836 15.2168 28.668 15.2168C24.6602 15.2168 21.2559 16.5 18.4551 19.0664C15.6543 21.6211 14.2539 25.125 14.2539 29.5781C14.2539 33.4688 15.5898 36.6328 18.2617 39.0703C20.9453 41.5078 24.168 42.7266 27.9297 42.7266C29.6875 42.7266 31.457 42.4043 33.2383 41.7598C35.0312 41.127 36.6953 40.1895 38.2305 38.9473C38.5469 38.6895 38.7988 38.6895 38.9863 38.9473L39.6719 39.8965C39.8711 40.1777 39.8125 40.4238 39.4961 40.6348C37.5859 41.9824 35.6934 43.0195 33.8184 43.7461C31.9551 44.4727 29.9395 44.8359 27.7715 44.8359C23.5645 44.8359 19.9023 43.4414 16.7852 40.6523C13.668 37.8633 12.1094 34.084 12.1094 29.3145ZM22.6035 31.1426C22.6035 32.584 22.8613 33.5801 23.377 34.1309C23.9043 34.6699 24.6309 34.9395 25.5566 34.9395C26.7402 34.9395 27.8418 34.1074 28.8613 32.4434C29.8926 30.7676 30.502 29.543 30.6895 28.7695C30.8652 28.0195 30.9531 27.1699 30.9531 26.2207C30.9531 25.4121 30.7129 24.6328 30.2324 23.8828C29.752 23.1328 29.043 22.7578 28.1055 22.7578C26.5352 22.7578 25.2227 23.6016 24.168 25.2891C23.125 26.9766 22.6035 28.9277 22.6035 31.1426Z" fill="black"/>
<defs>
<linearGradient id="paint0_linear_15_31" x1="28" y1="0" x2="28" y2="56" gradientUnits="userSpaceOnUse">
<stop stop-color="#43CEA2"/>
<stop offset="1" stop-color="#185A9D"/>
</linearGradient>
</defs>
</svg>
