<svg width="47" height="47" viewBox="0 0 47 47" fill="none" xmlns="http://www.w3.org/2000/svg">
<rect x="12.0942" y="12.0942" width="23" height="23" rx="3.5" fill="url(#paint0_linear_15_90)" stroke="url(#paint1_linear_15_90)"/>
<mask id="path-2-outside-1_15_90" maskUnits="userSpaceOnUse" x="15" y="15" width="17" height="15" fill="black">
<rect fill="white" x="15" y="15" width="17" height="15"/>
<path d="M16.7955 29V20.2727H19.9318V29H16.7955ZM18.3636 19.3636C17.9394 19.3636 17.5758 19.2235 17.2727 18.9432C16.9697 18.6629 16.8182 18.3258 16.8182 17.9318C16.8182 17.5379 16.9697 17.2008 17.2727 16.9205C17.5758 16.6402 17.9394 16.5 18.3636 16.5C18.7917 16.5 19.1553 16.6402 19.4545 16.9205C19.7576 17.2008 19.9091 17.5379 19.9091 17.9318C19.9091 18.3258 19.7576 18.6629 19.4545 18.9432C19.1553 19.2235 18.7917 19.3636 18.3636 19.3636ZM25.3062 24.0909V29H22.1698V20.2727H25.1471V21.9318H25.238C25.4274 21.3788 25.7607 20.9451 26.238 20.6307C26.7191 20.3163 27.2797 20.1591 27.9198 20.1591C28.5373 20.1591 29.0732 20.3011 29.5278 20.5852C29.9861 20.8655 30.3403 21.2519 30.5903 21.7443C30.8441 22.2367 30.9691 22.7992 30.9653 23.4318V29H27.8289V24.0909C27.8327 23.6591 27.7229 23.3201 27.4994 23.0739C27.2797 22.8277 26.9729 22.7045 26.5789 22.7045C26.3213 22.7045 26.096 22.7614 25.9028 22.875C25.7134 22.9848 25.5676 23.1439 25.4653 23.3523C25.363 23.5568 25.31 23.803 25.3062 24.0909Z"/>
</mask>
<path d="M16.7955 29V20.2727H19.9318V29H16.7955ZM18.3636 19.3636C17.9394 19.3636 17.5758 19.2235 17.2727 18.9432C16.9697 18.6629 16.8182 18.3258 16.8182 17.9318C16.8182 17.5379 16.9697 17.2008 17.2727 16.9205C17.5758 16.6402 17.9394 16.5 18.3636 16.5C18.7917 16.5 19.1553 16.6402 19.4545 16.9205C19.7576 17.2008 19.9091 17.5379 19.9091 17.9318C19.9091 18.3258 19.7576 18.6629 19.4545 18.9432C19.1553 19.2235 18.7917 19.3636 18.3636 19.3636ZM25.3062 24.0909V29H22.1698V20.2727H25.1471V21.9318H25.238C25.4274 21.3788 25.7607 20.9451 26.238 20.6307C26.7191 20.3163 27.2797 20.1591 27.9198 20.1591C28.5373 20.1591 29.0732 20.3011 29.5278 20.5852C29.9861 20.8655 30.3403 21.2519 30.5903 21.7443C30.8441 22.2367 30.9691 22.7992 30.9653 23.4318V29H27.8289V24.0909C27.8327 23.6591 27.7229 23.3201 27.4994 23.0739C27.2797 22.8277 26.9729 22.7045 26.5789 22.7045C26.3213 22.7045 26.096 22.7614 25.9028 22.875C25.7134 22.9848 25.5676 23.1439 25.4653 23.3523C25.363 23.5568 25.31 23.803 25.3062 24.0909Z" fill="#C0EBD1"/>
<path d="M16.7955 29H15.7955V30H16.7955V29ZM16.7955 20.2727V19.2727H15.7955V20.2727H16.7955ZM19.9318 20.2727H20.9318V19.2727H19.9318V20.2727ZM19.9318 29V30H20.9318V29H19.9318ZM17.2727 18.9432L16.5937 19.6773L16.5937 19.6773L17.2727 18.9432ZM17.2727 16.9205L16.5937 16.1864L16.5937 16.1864L17.2727 16.9205ZM19.4545 16.9205L18.7709 17.6503L18.7755 17.6546L19.4545 16.9205ZM19.4545 18.9432L18.7755 18.2091L18.7709 18.2134L19.4545 18.9432ZM16.7955 29H17.7955V20.2727H16.7955H15.7955V29H16.7955ZM16.7955 20.2727V21.2727H19.9318V20.2727V19.2727H16.7955V20.2727ZM19.9318 20.2727H18.9318V29H19.9318H20.9318V20.2727H19.9318ZM19.9318 29V28H16.7955V29V30H19.9318V29ZM18.3636 19.3636V18.3636C18.1834 18.3636 18.0644 18.3133 17.9518 18.2091L17.2727 18.9432L16.5937 19.6773C17.0871 20.1337 17.6954 20.3636 18.3636 20.3636V19.3636ZM17.2727 18.9432L17.9518 18.2091C17.8423 18.1078 17.8182 18.0323 17.8182 17.9318H16.8182H15.8182C15.8182 18.6192 16.0971 19.2179 16.5937 19.6773L17.2727 18.9432ZM16.8182 17.9318H17.8182C17.8182 17.8313 17.8423 17.7558 17.9518 17.6546L17.2727 16.9205L16.5937 16.1864C16.0971 16.6457 15.8182 17.2444 15.8182 17.9318H16.8182ZM17.2727 16.9205L17.9518 17.6546C18.0644 17.5504 18.1834 17.5 18.3636 17.5V16.5V15.5C17.6954 15.5 17.0871 15.7299 16.5937 16.1864L17.2727 16.9205ZM18.3636 16.5V17.5C18.5501 17.5 18.6658 17.5518 18.7709 17.6503L19.4545 16.9205L20.1382 16.1906C19.6448 15.7285 19.0333 15.5 18.3636 15.5V16.5ZM19.4545 16.9205L18.7755 17.6546C18.885 17.7558 18.9091 17.8313 18.9091 17.9318H19.9091H20.9091C20.9091 17.2444 20.6302 16.6457 20.1336 16.1864L19.4545 16.9205ZM19.9091 17.9318H18.9091C18.9091 18.0323 18.885 18.1078 18.7755 18.2091L19.4545 18.9432L20.1336 19.6773C20.6302 19.2179 20.9091 18.6192 20.9091 17.9318H19.9091ZM19.4545 18.9432L18.7709 18.2134C18.6658 18.3118 18.5501 18.3636 18.3636 18.3636V19.3636V20.3636C19.0333 20.3636 19.6448 20.1351 20.1382 19.673L19.4545 18.9432ZM25.3062 24.0909L24.3062 24.0778V24.0909H25.3062ZM25.3062 29V30H26.3062V29H25.3062ZM22.1698 29H21.1698V30H22.1698V29ZM22.1698 20.2727V19.2727H21.1698V20.2727H22.1698ZM25.1471 20.2727H26.1471V19.2727H25.1471V20.2727ZM25.1471 21.9318H24.1471V22.9318H25.1471V21.9318ZM25.238 21.9318V22.9318H25.9526L26.1841 22.2558L25.238 21.9318ZM26.238 20.6307L25.6909 19.7936L25.6879 19.7956L26.238 20.6307ZM29.5278 20.5852L28.9978 21.4333L29.006 21.4383L29.5278 20.5852ZM30.5903 21.7443L29.6986 22.197L29.7014 22.2024L30.5903 21.7443ZM30.9653 23.4318L29.9653 23.4258V23.4318H30.9653ZM30.9653 29V30H31.9653V29H30.9653ZM27.8289 29H26.8289V30H27.8289V29ZM27.8289 24.0909L26.8289 24.0821V24.0909H27.8289ZM27.4994 23.0739L26.7532 23.7397L26.7589 23.746L27.4994 23.0739ZM25.9028 22.875L26.4045 23.74L26.4098 23.7369L25.9028 22.875ZM25.4653 23.3523L26.3597 23.7995L26.363 23.7929L25.4653 23.3523ZM25.3062 24.0909H24.3062V29H25.3062H26.3062V24.0909H25.3062ZM25.3062 29V28H22.1698V29V30H25.3062V29ZM22.1698 29H23.1698V20.2727H22.1698H21.1698V29H22.1698ZM22.1698 20.2727V21.2727H25.1471V20.2727V19.2727H22.1698V20.2727ZM25.1471 20.2727H24.1471V21.9318H25.1471H26.1471V20.2727H25.1471ZM25.1471 21.9318V22.9318H25.238V21.9318V20.9318H25.1471V21.9318ZM25.238 21.9318L26.1841 22.2558C26.3035 21.9071 26.5003 21.6554 26.7881 21.4658L26.238 20.6307L25.6879 19.7956C25.0212 20.2348 24.5513 20.8504 24.292 21.6078L25.238 21.9318ZM26.238 20.6307L26.7851 21.4678C27.0853 21.2716 27.4511 21.1591 27.9198 21.1591V20.1591V19.1591C27.1083 19.1591 26.3528 19.361 25.6909 19.7936L26.238 20.6307ZM27.9198 20.1591V21.1591C28.3789 21.1591 28.7251 21.2628 28.9978 21.4332L29.5278 20.5852L30.0578 19.7372C29.4213 19.3395 28.6956 19.1591 27.9198 19.1591V20.1591ZM29.5278 20.5852L29.006 21.4383C29.3018 21.6192 29.53 21.8649 29.6986 22.197L30.5903 21.7443L31.482 21.2916C31.1506 20.6389 30.6704 20.1119 30.0495 19.7321L29.5278 20.5852ZM30.5903 21.7443L29.7014 22.2024C29.8713 22.5322 29.9683 22.9316 29.9653 23.4258L30.9653 23.4318L31.9653 23.4378C31.9699 22.6669 31.8168 21.9413 31.4792 21.2862L30.5903 21.7443ZM30.9653 23.4318H29.9653V29H30.9653H31.9653V23.4318H30.9653ZM30.9653 29V28H27.8289V29V30H30.9653V29ZM27.8289 29H28.8289V24.0909H27.8289H26.8289V29H27.8289ZM27.8289 24.0909L28.8289 24.0997C28.8342 23.4937 28.6781 22.8845 28.2398 22.4018L27.4994 23.0739L26.7589 23.746C26.7677 23.7556 26.8312 23.8244 26.829 24.0821L27.8289 24.0909ZM27.4994 23.0739L28.2455 22.4081C27.7993 21.908 27.1975 21.7045 26.5789 21.7045V22.7045V23.7045C26.6722 23.7045 26.7175 23.7191 26.7321 23.725C26.7426 23.7292 26.7463 23.7319 26.7532 23.7397L27.4994 23.0739ZM26.5789 22.7045V21.7045C26.1701 21.7045 25.7644 21.7962 25.3958 22.0131L25.9028 22.875L26.4098 23.7369C26.4276 23.7265 26.4726 23.7045 26.5789 23.7045V22.7045ZM25.9028 22.875L25.4011 22.01C25.0301 22.2251 24.7515 22.537 24.5676 22.9116L25.4653 23.3523L26.363 23.7929C26.3836 23.7509 26.3966 23.7446 26.4045 23.74L25.9028 22.875ZM25.4653 23.3523L24.5709 22.9051C24.386 23.2748 24.3116 23.6771 24.3063 24.0778L25.3062 24.0909L26.3061 24.1041C26.3084 23.929 26.34 23.8389 26.3597 23.7995L25.4653 23.3523Z" fill="url(#paint2_linear_15_90)" mask="url(#path-2-outside-1_15_90)"/>
<rect x="1.5" y="1.5" width="44" height="44" rx="2.5" stroke="url(#paint3_linear_15_90)" stroke-width="3"/>
<defs>
<linearGradient id="paint0_linear_15_90" x1="23.5942" y1="11.5942" x2="23.5942" y2="35.5942" gradientUnits="userSpaceOnUse">
<stop stop-color="#43CEA2"/>
<stop offset="1" stop-color="#185A9D"/>
</linearGradient>
<linearGradient id="paint1_linear_15_90" x1="23.5942" y1="11.5942" x2="23.5942" y2="35.5942" gradientUnits="userSpaceOnUse">
<stop stop-color="#43CEA2"/>
<stop offset="1" stop-color="#185A9D"/>
</linearGradient>
<linearGradient id="paint2_linear_15_90" x1="24.2286" y1="14" x2="24.2286" y2="33.8857" gradientUnits="userSpaceOnUse">
<stop stop-color="#43CEA2"/>
<stop offset="1" stop-color="#185A9D"/>
</linearGradient>
<linearGradient id="paint3_linear_15_90" x1="23.5" y1="3" x2="23.5" y2="44" gradientUnits="userSpaceOnUse">
<stop stop-color="#43CEA2"/>
<stop offset="1" stop-color="#185A9D"/>
</linearGradient>
</defs>
</svg>
